<svg xmlns="http://www.w3.org/2000/svg" xmlns:xlink="http://www.w3.org/1999/xlink" width="793" zoomAndPan="magnify" viewBox="0 0 595.5 842.249979" height="1122" preserveAspectRatio="xMidYMid meet" version="1.0"><defs><clipPath id="965fe076e8"><path d="M 9 754 L 594.984375 754 L 594.984375 814 L 9 814 Z M 9 754 " clip-rule="nonzero"/></clipPath><clipPath id="f12a834619"><path d="M 129.382812 28.800781 L 453.101562 28.800781 L 453.101562 470.234375 L 129.382812 470.234375 Z M 129.382812 28.800781 " clip-rule="nonzero"/></clipPath></defs><g clip-path="url(#965fe076e8)"><path stroke-linecap="butt" transform="matrix(30.242581, 0, 0, 29.428759, 39.724503, 754.187311)" fill="none" stroke-linejoin="miter" d="M -0.0000610732 1.000038 L 17.527998 1.000038 " stroke="#666cff" stroke-width="2" stroke-opacity="1" stroke-miterlimit="4"/></g><g clip-path="url(#f12a834619)"><path fill="#666cff" d="M 296.050781 470.144531 C 295.300781 470.140625 294.554688 470.085938 293.8125 469.972656 C 293.070312 469.859375 292.339844 469.691406 291.617188 469.46875 C 290.898438 469.246094 290.199219 468.972656 289.515625 468.644531 C 288.835938 468.316406 288.179688 467.9375 287.546875 467.511719 C 286.917969 467.085938 286.316406 466.613281 285.75 466.097656 C 285.183594 465.582031 284.65625 465.027344 284.167969 464.429688 C 283.675781 463.835938 283.226562 463.207031 282.824219 462.542969 C 282.417969 461.878906 282.058594 461.191406 281.75 460.472656 C 281.4375 459.757812 281.179688 459.023438 280.96875 458.265625 C 280.757812 457.511719 280.597656 456.742188 280.492188 455.964844 C 280.386719 455.183594 280.335938 454.402344 280.335938 453.613281 C 280.335938 452.828125 280.390625 452.042969 280.5 451.265625 C 280.609375 450.484375 280.769531 449.71875 280.980469 448.964844 C 281.191406 448.207031 281.457031 447.472656 281.769531 446.757812 C 282.082031 446.042969 282.441406 445.351562 282.847656 444.691406 C 283.253906 444.03125 283.703125 443.402344 284.195312 442.808594 C 322.414062 396.726562 421.625 263.042969 421.625 198.699219 C 421.625 123.257812 363.128906 61.878906 291.230469 61.878906 C 219.335938 61.878906 160.839844 123.257812 160.839844 198.699219 C 160.839844 262.496094 247.101562 365.605469 280.335938 399.953125 C 280.707031 400.332031 281.0625 400.730469 281.398438 401.144531 C 281.730469 401.558594 282.046875 401.988281 282.339844 402.4375 C 282.636719 402.882812 282.90625 403.347656 283.160156 403.820312 C 283.410156 404.296875 283.636719 404.785156 283.84375 405.285156 C 284.046875 405.78125 284.226562 406.292969 284.386719 406.808594 C 284.542969 407.328125 284.675781 407.851562 284.78125 408.382812 C 284.890625 408.914062 284.972656 409.453125 285.03125 409.992188 C 285.085938 410.53125 285.117188 411.074219 285.125 411.617188 C 285.132812 412.160156 285.113281 412.703125 285.066406 413.246094 C 285.023438 413.785156 284.953125 414.324219 284.855469 414.859375 C 284.761719 415.390625 284.640625 415.921875 284.496094 416.441406 C 284.351562 416.964844 284.179688 417.476562 283.988281 417.980469 C 283.792969 418.484375 283.578125 418.976562 283.335938 419.460938 C 283.097656 419.941406 282.835938 420.410156 282.550781 420.863281 C 282.265625 421.320312 281.960938 421.757812 281.636719 422.179688 C 281.3125 422.605469 280.964844 423.007812 280.601562 423.394531 C 280.238281 423.785156 279.859375 424.152344 279.460938 424.5 C 279.0625 424.847656 278.648438 425.171875 278.21875 425.476562 C 277.792969 425.78125 277.351562 426.066406 276.894531 426.324219 C 276.4375 426.582031 275.972656 426.816406 275.496094 427.027344 C 275.019531 427.238281 274.53125 427.425781 274.035156 427.585938 C 273.542969 427.746094 273.039062 427.878906 272.53125 427.988281 C 272.023438 428.097656 271.511719 428.179688 271 428.234375 C 270.484375 428.289062 269.964844 428.316406 269.449219 428.320312 C 268.929688 428.320312 268.414062 428.296875 267.898438 428.246094 C 267.382812 428.191406 266.871094 428.113281 266.363281 428.011719 C 265.851562 427.90625 265.351562 427.773438 264.855469 427.617188 C 264.359375 427.460938 263.871094 427.277344 263.394531 427.070312 C 262.914062 426.863281 262.445312 426.632812 261.988281 426.375 C 261.53125 426.121094 261.089844 425.839844 260.65625 425.539062 C 260.226562 425.238281 259.8125 424.914062 259.410156 424.570312 C 259.011719 424.222656 258.628906 423.859375 258.261719 423.472656 C 252.996094 418.035156 129.378906 289.246094 129.378906 198.699219 C 129.378906 105.054688 201.984375 28.867188 291.230469 28.867188 C 380.480469 28.867188 453.09375 105.054688 453.09375 198.691406 C 453.09375 237.25 428.371094 293.996094 379.613281 367.359375 C 344.210938 420.628906 309.386719 462.710938 307.921875 464.476562 C 307.183594 465.367188 306.363281 466.167969 305.460938 466.871094 C 304.558594 467.578125 303.597656 468.175781 302.574219 468.664062 C 301.550781 469.152344 300.488281 469.523438 299.386719 469.773438 C 298.289062 470.019531 297.175781 470.144531 296.050781 470.144531 Z M 296.050781 470.144531 " fill-opacity="1" fill-rule="nonzero"/></g><path fill="#666cff" d="M 292.347656 273.152344 C 258.03125 273.152344 225.320312 252.074219 210.957031 216.945312 C 191.742188 169.925781 212.5625 115.265625 257.371094 95.101562 C 282.050781 83.992188 309.835938 85.183594 333.601562 98.375 C 334.058594 98.625 334.503906 98.898438 334.933594 99.195312 C 335.367188 99.496094 335.785156 99.8125 336.1875 100.152344 C 336.585938 100.492188 336.972656 100.855469 337.339844 101.234375 C 337.707031 101.613281 338.058594 102.011719 338.386719 102.429688 C 338.71875 102.847656 339.027344 103.277344 339.320312 103.726562 C 339.609375 104.175781 339.878906 104.636719 340.125 105.113281 C 340.371094 105.589844 340.59375 106.078125 340.792969 106.578125 C 340.996094 107.074219 341.171875 107.585938 341.324219 108.101562 C 341.480469 108.621094 341.605469 109.144531 341.710938 109.675781 C 341.816406 110.207031 341.894531 110.738281 341.949219 111.277344 C 342 111.816406 342.03125 112.359375 342.03125 112.902344 C 342.035156 113.441406 342.011719 113.984375 341.964844 114.523438 C 341.917969 115.0625 341.84375 115.597656 341.746094 116.128906 C 341.648438 116.660156 341.523438 117.1875 341.378906 117.707031 C 341.230469 118.226562 341.058594 118.738281 340.863281 119.238281 C 340.667969 119.738281 340.449219 120.230469 340.207031 120.710938 C 339.96875 121.1875 339.703125 121.652344 339.417969 122.105469 C 339.132812 122.558594 338.828125 122.992188 338.503906 123.414062 C 338.175781 123.835938 337.832031 124.238281 337.46875 124.621094 C 337.101562 125.007812 336.722656 125.371094 336.324219 125.714844 C 335.925781 126.0625 335.511719 126.386719 335.085938 126.6875 C 334.65625 126.992188 334.214844 127.269531 333.761719 127.527344 C 333.304688 127.785156 332.839844 128.015625 332.363281 128.226562 C 331.886719 128.433594 331.402344 128.617188 330.90625 128.777344 C 330.414062 128.9375 329.914062 129.066406 329.40625 129.175781 C 328.902344 129.28125 328.390625 129.363281 327.875 129.417969 C 327.363281 129.472656 326.847656 129.5 326.332031 129.5 C 325.816406 129.5 325.300781 129.476562 324.785156 129.421875 C 324.273438 129.371094 323.761719 129.292969 323.253906 129.1875 C 322.746094 129.082031 322.246094 128.953125 321.753906 128.792969 C 321.257812 128.636719 320.773438 128.457031 320.296875 128.25 C 319.816406 128.042969 319.351562 127.8125 318.894531 127.554688 C 317.023438 126.511719 315.101562 125.578125 313.128906 124.761719 C 311.15625 123.941406 309.148438 123.238281 307.101562 122.65625 C 305.054688 122.074219 302.980469 121.613281 300.886719 121.273438 C 298.789062 120.9375 296.683594 120.71875 294.5625 120.628906 C 292.445312 120.539062 290.328125 120.570312 288.210938 120.730469 C 286.09375 120.886719 283.996094 121.167969 281.910156 121.574219 C 279.824219 121.980469 277.765625 122.503906 275.738281 123.152344 C 273.707031 123.796875 271.71875 124.5625 269.769531 125.441406 C 240.90625 138.433594 227.496094 173.648438 239.875 203.9375 C 252.25 234.226562 285.816406 248.296875 314.679688 235.308594 C 343.542969 222.320312 356.957031 187.105469 344.578125 156.8125 C 344.375 156.316406 344.195312 155.8125 344.039062 155.296875 C 343.882812 154.78125 343.753906 154.257812 343.644531 153.730469 C 343.539062 153.199219 343.457031 152.667969 343.398438 152.128906 C 343.34375 151.59375 343.3125 151.054688 343.304688 150.511719 C 343.296875 149.972656 343.316406 149.433594 343.359375 148.894531 C 343.40625 148.355469 343.472656 147.820312 343.570312 147.289062 C 343.664062 146.757812 343.78125 146.234375 343.925781 145.714844 C 344.070312 145.195312 344.234375 144.683594 344.425781 144.179688 C 344.617188 143.679688 344.832031 143.1875 345.070312 142.707031 C 345.308594 142.230469 345.566406 141.761719 345.847656 141.308594 C 346.128906 140.855469 346.429688 140.417969 346.75 139.996094 C 347.074219 139.574219 347.414062 139.167969 347.773438 138.78125 C 348.132812 138.394531 348.511719 138.027344 348.902344 137.679688 C 349.296875 137.332031 349.707031 137.003906 350.132812 136.699219 C 350.558594 136.394531 350.996094 136.109375 351.445312 135.847656 C 351.898438 135.589844 352.359375 135.351562 352.832031 135.136719 C 353.308594 134.925781 353.789062 134.738281 354.28125 134.574219 C 354.773438 134.410156 355.269531 134.273438 355.773438 134.160156 C 356.277344 134.046875 356.785156 133.960938 357.296875 133.902344 C 357.808594 133.84375 358.324219 133.808594 358.839844 133.800781 C 359.355469 133.796875 359.867188 133.816406 360.382812 133.863281 C 360.894531 133.910156 361.40625 133.980469 361.910156 134.078125 C 362.417969 134.179688 362.917969 134.304688 363.414062 134.453125 C 363.90625 134.605469 364.394531 134.78125 364.875 134.980469 C 365.351562 135.179688 365.820312 135.40625 366.277344 135.65625 C 366.734375 135.902344 367.179688 136.175781 367.609375 136.46875 C 368.042969 136.765625 368.460938 137.082031 368.863281 137.417969 C 369.265625 137.757812 369.648438 138.113281 370.019531 138.492188 C 370.386719 138.867188 370.738281 139.265625 371.070312 139.679688 C 371.402344 140.089844 371.714844 140.519531 372.003906 140.96875 C 372.296875 141.414062 372.566406 141.871094 372.816406 142.347656 C 373.0625 142.820312 373.289062 143.304688 373.492188 143.800781 C 392.710938 190.820312 371.890625 245.476562 327.082031 265.648438 C 321.597656 268.121094 315.929688 269.992188 310.082031 271.257812 C 304.230469 272.519531 298.320312 273.152344 292.347656 273.152344 Z M 292.347656 273.152344 " fill-opacity="1" fill-rule="nonzero"/></svg>