<svg xmlns="http://www.w3.org/2000/svg" xmlns:xlink="http://www.w3.org/1999/xlink" width="793" zoomAndPan="magnify" viewBox="0 0 595.5 842.249979" height="1122" preserveAspectRatio="xMidYMid meet" version="1.0"><defs><filter x="0%" y="0%" width="100%" height="100%" id="4df69ff9c9"><feColorMatrix values="0 0 0 0 1 0 0 0 0 1 0 0 0 0 1 0 0 0 1 0" color-interpolation-filters="sRGB"/></filter><mask id="ef9d20d609"><g filter="url(#4df69ff9c9)"><rect x="-59.55" width="714.6" fill="#000000" y="-84.224998" height="1010.699974" fill-opacity="0.0392"/></g></mask><clipPath id="0e85c6a686"><path d="M 2 0.132812 L 483 0.132812 L 483 346.863281 L 2 346.863281 Z M 2 0.132812 " clip-rule="nonzero"/></clipPath><clipPath id="d6f166c288"><rect x="0" width="486" y="0" height="347"/></clipPath></defs><g mask="url(#ef9d20d609)"><g transform="matrix(1, 0, 0, 1, 56, 255)"><g clip-path="url(#d6f166c288)"><g clip-path="url(#0e85c6a686)"><path fill="#000000" d="M 338.949219 95.117188 C 316 95.269531 292.824219 95.519531 269.597656 95.820312 C 311.203125 73.726562 355.671875 49.773438 396.847656 27.074219 L 445.484375 0.332031 C 427.910156 1.0625 382.363281 2.84375 365.136719 3.496094 C 304.648438 6.007812 243.761719 9.046875 183.425781 13.867188 C 234.195312 18.664062 285.390625 22.253906 336.589844 25.339844 L 332.292969 27.25 C 283.785156 48.894531 232.964844 72.042969 184.503906 94.566406 C 190.765625 82.363281 196.96875 70.125 203.109375 57.855469 C 164.542969 60.066406 124.59375 62.25 86.128906 65.390625 C 112.167969 67.902344 138.253906 69.910156 164.34375 71.792969 L 176.898438 72.695312 C 168.792969 84.832031 160.75 97.011719 152.765625 109.230469 C 146.605469 118.601562 140.480469 128.003906 134.386719 137.425781 C 126.152344 150.066406 117.976562 162.726562 109.855469 175.414062 C 74.554688 230.226562 37.042969 290.917969 2.339844 346.78125 C 48.113281 323.832031 103.503906 296.1875 148.550781 272.8125 C 259.027344 216.09375 373.625 154.148438 482.722656 94.539062 C 447.871094 94.617188 372.996094 94.816406 338.949219 95.117188 Z M 295.636719 142.824219 C 241.453125 172.300781 182.167969 205.019531 128.460938 235.300781 L 103.203125 249.585938 C 123.105469 212.558594 142.773438 175.390625 162.207031 138.078125 L 183.300781 138.53125 C 221.867188 139.386719 261.136719 140.0625 300.03125 140.539062 Z M 295.636719 142.824219 " fill-opacity="1" fill-rule="nonzero"/></g></g></g></g></svg>