<svg xmlns="http://www.w3.org/2000/svg" xmlns:xlink="http://www.w3.org/1999/xlink" width="793" zoomAndPan="magnify" viewBox="0 0 595.5 842.249979" height="1122" preserveAspectRatio="xMidYMid meet" version="1.0"><defs><clipPath id="3162cb4878"><path d="M 0.015625 751 L 594.984375 751 L 594.984375 815 L 0.015625 815 Z M 0.015625 751 " clip-rule="nonzero"/></clipPath><clipPath id="92810477c3"><path d="M 90 27.117188 L 496 27.117188 L 496 132 L 90 132 Z M 90 27.117188 " clip-rule="nonzero"/></clipPath><clipPath id="a2cc9a98cd"><path d="M 90 163 L 496 163 L 496 404.398438 L 90 404.398438 Z M 90 163 " clip-rule="nonzero"/></clipPath></defs><g clip-path="url(#3162cb4878)"><path stroke-linecap="butt" transform="matrix(32.309363, 0, 0, 31.439925, 22.098675, 751.849393)" fill="none" stroke-linejoin="miter" d="M -0.0000315172 0.999992 L 17.528024 0.999992 " stroke="#666cff" stroke-width="2" stroke-opacity="1" stroke-miterlimit="4"/></g><g clip-path="url(#92810477c3)"><path fill="#666cff" d="M 108.230469 131.585938 C 107.640625 131.585938 107.054688 131.554688 106.464844 131.496094 C 105.878906 131.433594 105.296875 131.34375 104.71875 131.21875 C 104.140625 131.097656 103.570312 130.949219 103.003906 130.765625 C 102.441406 130.585938 101.886719 130.375 101.339844 130.136719 C 100.796875 129.898438 100.265625 129.632812 99.742188 129.339844 C 99.222656 129.046875 98.71875 128.726562 98.226562 128.378906 C 97.738281 128.035156 97.265625 127.664062 96.808594 127.265625 C 96.351562 126.871094 95.917969 126.453125 95.5 126.011719 C 95.082031 125.570312 94.6875 125.109375 94.3125 124.628906 C 93.9375 124.148438 93.589844 123.648438 93.261719 123.128906 C 92.933594 122.609375 92.628906 122.078125 92.351562 121.527344 C 92.074219 120.976562 91.824219 120.414062 91.597656 119.839844 C 91.371094 119.261719 91.171875 118.675781 91 118.082031 C 90.832031 117.484375 90.6875 116.878906 90.570312 116.269531 C 90.457031 115.660156 90.371094 115.042969 90.3125 114.421875 C 90.253906 113.800781 90.226562 113.179688 90.226562 112.558594 L 90.226562 111.726562 C 90.226562 65.074219 126.136719 27.113281 170.28125 27.113281 L 415.488281 27.113281 C 459.304688 27.113281 495.011719 64.503906 495.539062 110.683594 C 495.539062 110.847656 495.539062 111.011719 495.539062 111.175781 L 495.539062 111.71875 C 495.539062 112.339844 495.507812 112.964844 495.449219 113.582031 C 495.394531 114.203125 495.308594 114.820312 495.191406 115.429688 C 495.078125 116.042969 494.933594 116.644531 494.761719 117.242188 C 494.589844 117.839844 494.394531 118.425781 494.167969 119 C 493.941406 119.574219 493.691406 120.140625 493.410156 120.6875 C 493.132812 121.238281 492.832031 121.773438 492.503906 122.289062 C 492.175781 122.808594 491.824219 123.308594 491.449219 123.789062 C 491.078125 124.273438 490.679688 124.734375 490.265625 125.171875 C 489.847656 125.613281 489.410156 126.03125 488.953125 126.429688 C 488.5 126.824219 488.027344 127.195312 487.535156 127.539062 C 487.046875 127.886719 486.539062 128.207031 486.019531 128.5 C 485.5 128.792969 484.96875 129.058594 484.421875 129.296875 C 483.878906 129.535156 483.324219 129.746094 482.757812 129.925781 C 482.195312 130.109375 481.625 130.261719 481.046875 130.382812 C 480.46875 130.503906 479.882812 130.59375 479.296875 130.65625 C 478.710938 130.714844 478.121094 130.746094 477.535156 130.746094 C 476.945312 130.746094 476.355469 130.714844 475.769531 130.65625 C 475.183594 130.59375 474.597656 130.503906 474.019531 130.382812 C 473.441406 130.261719 472.871094 130.109375 472.308594 129.925781 C 471.742188 129.746094 471.1875 129.535156 470.644531 129.296875 C 470.097656 129.058594 469.566406 128.792969 469.046875 128.5 C 468.527344 128.207031 468.019531 127.886719 467.53125 127.539062 C 467.039062 127.195312 466.566406 126.824219 466.113281 126.425781 C 465.65625 126.03125 465.21875 125.613281 464.800781 125.171875 C 464.386719 124.734375 463.988281 124.273438 463.617188 123.789062 C 463.242188 123.308594 462.890625 122.808594 462.5625 122.289062 C 462.234375 121.773438 461.933594 121.238281 461.65625 120.6875 C 461.375 120.140625 461.125 119.574219 460.898438 119 C 460.671875 118.425781 460.476562 117.839844 460.304688 117.242188 C 460.132812 116.644531 459.988281 116.042969 459.875 115.429688 C 459.761719 114.820312 459.671875 114.203125 459.617188 113.582031 C 459.558594 112.964844 459.527344 112.339844 459.527344 111.71875 C 459.527344 86.050781 439.769531 65.167969 415.484375 65.167969 L 170.28125 65.167969 C 145.996094 65.167969 126.234375 86.050781 126.234375 111.71875 L 126.234375 112.550781 C 126.234375 113.171875 126.207031 113.796875 126.148438 114.414062 C 126.09375 115.035156 126.007812 115.652344 125.890625 116.261719 C 125.777344 116.875 125.632812 117.480469 125.460938 118.074219 C 125.292969 118.671875 125.09375 119.257812 124.867188 119.832031 C 124.640625 120.410156 124.390625 120.972656 124.113281 121.523438 C 123.835938 122.074219 123.53125 122.605469 123.203125 123.125 C 122.875 123.644531 122.527344 124.144531 122.152344 124.625 C 121.777344 125.109375 121.382812 125.570312 120.964844 126.007812 C 120.546875 126.449219 120.113281 126.867188 119.65625 127.265625 C 119.199219 127.660156 118.726562 128.03125 118.238281 128.378906 C 117.746094 128.722656 117.242188 129.042969 116.722656 129.335938 C 116.199219 129.632812 115.667969 129.898438 115.125 130.136719 C 114.578125 130.375 114.023438 130.585938 113.460938 130.765625 C 112.894531 130.945312 112.324219 131.097656 111.746094 131.21875 C 111.167969 131.339844 110.582031 131.433594 109.996094 131.492188 C 109.410156 131.554688 108.820312 131.585938 108.230469 131.585938 Z M 108.230469 131.585938 " fill-opacity="1" fill-rule="nonzero"/></g><g clip-path="url(#a2cc9a98cd)"><path fill="#666cff" d="M 414.257812 404.386719 L 171.511719 404.386719 C 126.691406 404.386719 90.226562 365.851562 90.226562 318.476562 L 90.226562 184.75 C 90.230469 184.132812 90.265625 183.511719 90.328125 182.898438 C 90.390625 182.28125 90.480469 181.667969 90.597656 181.0625 C 90.71875 180.453125 90.863281 179.855469 91.039062 179.265625 C 91.210938 178.671875 91.414062 178.089844 91.640625 177.519531 C 91.871094 176.949219 92.125 176.390625 92.402344 175.84375 C 92.683594 175.300781 92.984375 174.773438 93.316406 174.257812 C 93.644531 173.746094 93.996094 173.25 94.367188 172.773438 C 94.742188 172.296875 95.136719 171.839844 95.554688 171.402344 C 95.972656 170.964844 96.40625 170.550781 96.863281 170.160156 C 97.316406 169.769531 97.789062 169.402344 98.277344 169.058594 C 98.765625 168.714844 99.269531 168.398438 99.785156 168.109375 C 100.304688 167.820312 100.835938 167.554688 101.375 167.320312 C 101.917969 167.082031 102.472656 166.875 103.03125 166.699219 C 103.59375 166.519531 104.164062 166.367188 104.738281 166.25 C 105.3125 166.128906 105.890625 166.039062 106.476562 165.976562 C 107.058594 165.917969 107.644531 165.886719 108.230469 165.886719 C 108.816406 165.886719 109.402344 165.917969 109.984375 165.976562 C 110.570312 166.039062 111.148438 166.128906 111.722656 166.25 C 112.300781 166.367188 112.867188 166.519531 113.429688 166.699219 C 113.992188 166.875 114.542969 167.082031 115.085938 167.320312 C 115.628906 167.554688 116.15625 167.820312 116.675781 168.109375 C 117.195312 168.398438 117.695312 168.714844 118.183594 169.058594 C 118.675781 169.402344 119.144531 169.769531 119.601562 170.160156 C 120.054688 170.550781 120.492188 170.964844 120.90625 171.402344 C 121.324219 171.839844 121.71875 172.296875 122.09375 172.773438 C 122.46875 173.25 122.820312 173.746094 123.148438 174.257812 C 123.476562 174.773438 123.78125 175.300781 124.058594 175.84375 C 124.339844 176.390625 124.59375 176.949219 124.820312 177.519531 C 125.046875 178.089844 125.25 178.671875 125.421875 179.265625 C 125.597656 179.855469 125.746094 180.453125 125.863281 181.0625 C 125.980469 181.667969 126.074219 182.28125 126.136719 182.898438 C 126.195312 183.511719 126.230469 184.132812 126.234375 184.75 L 126.234375 318.476562 C 126.234375 344.863281 146.546875 366.328125 171.511719 366.328125 L 414.257812 366.328125 C 439.222656 366.328125 459.535156 344.863281 459.535156 318.476562 L 459.535156 182.707031 C 459.535156 182.085938 459.5625 181.464844 459.621094 180.84375 C 459.679688 180.222656 459.765625 179.605469 459.878906 178.996094 C 459.996094 178.382812 460.136719 177.78125 460.308594 177.183594 C 460.480469 176.589844 460.679688 176.003906 460.90625 175.425781 C 461.128906 174.851562 461.382812 174.289062 461.660156 173.738281 C 461.9375 173.1875 462.242188 172.65625 462.570312 172.136719 C 462.894531 171.617188 463.246094 171.117188 463.621094 170.636719 C 463.996094 170.15625 464.390625 169.695312 464.808594 169.253906 C 465.226562 168.8125 465.660156 168.394531 466.117188 168 C 466.574219 167.605469 467.046875 167.234375 467.535156 166.886719 C 468.027344 166.539062 468.53125 166.21875 469.050781 165.925781 C 469.570312 165.632812 470.105469 165.367188 470.648438 165.128906 C 471.195312 164.890625 471.75 164.679688 472.3125 164.5 C 472.875 164.316406 473.449219 164.167969 474.027344 164.046875 C 474.605469 163.921875 475.1875 163.832031 475.773438 163.769531 C 476.359375 163.710938 476.949219 163.679688 477.539062 163.679688 C 478.128906 163.679688 478.71875 163.710938 479.304688 163.769531 C 479.890625 163.832031 480.472656 163.921875 481.050781 164.046875 C 481.628906 164.167969 482.199219 164.316406 482.765625 164.5 C 483.328125 164.679688 483.882812 164.890625 484.429688 165.128906 C 484.972656 165.367188 485.507812 165.632812 486.027344 165.925781 C 486.546875 166.21875 487.050781 166.539062 487.542969 166.886719 C 488.03125 167.234375 488.503906 167.605469 488.960938 168 C 489.417969 168.394531 489.851562 168.8125 490.269531 169.253906 C 490.6875 169.695312 491.082031 170.15625 491.457031 170.636719 C 491.832031 171.117188 492.179688 171.617188 492.507812 172.136719 C 492.835938 172.65625 493.140625 173.1875 493.417969 173.738281 C 493.695312 174.289062 493.945312 174.851562 494.171875 175.425781 C 494.398438 176.003906 494.597656 176.589844 494.769531 177.183594 C 494.9375 177.78125 495.082031 178.386719 495.195312 178.996094 C 495.3125 179.605469 495.398438 180.222656 495.457031 180.84375 C 495.515625 181.464844 495.542969 182.085938 495.542969 182.707031 L 495.542969 318.476562 C 495.542969 365.851562 459.078125 404.386719 414.257812 404.386719 Z M 414.257812 404.386719 " fill-opacity="1" fill-rule="nonzero"/></g><path fill="#666cff" d="M 292.414062 267.175781 C 286.082031 267.179688 279.800781 266.613281 273.5625 265.480469 C 267.328125 264.347656 261.226562 262.660156 255.261719 260.421875 C 249.300781 258.183594 243.558594 255.425781 238.042969 252.148438 C 232.527344 248.871094 227.3125 245.121094 222.40625 240.898438 L 96.878906 133.109375 C 96.425781 132.714844 95.992188 132.296875 95.582031 131.859375 C 95.167969 131.417969 94.773438 130.957031 94.402344 130.476562 C 94.03125 129.996094 93.683594 129.5 93.359375 128.984375 C 93.035156 128.46875 92.734375 127.9375 92.460938 127.386719 C 92.183594 126.839844 91.933594 126.28125 91.710938 125.707031 C 91.488281 125.136719 91.289062 124.550781 91.121094 123.960938 C 90.949219 123.367188 90.808594 122.765625 90.691406 122.15625 C 90.578125 121.550781 90.492188 120.9375 90.433594 120.320312 C 90.375 119.703125 90.347656 119.085938 90.347656 118.464844 C 90.347656 117.847656 90.375 117.226562 90.429688 116.609375 C 90.488281 115.992188 90.570312 115.378906 90.683594 114.773438 C 90.796875 114.164062 90.9375 113.5625 91.109375 112.96875 C 91.277344 112.375 91.472656 111.792969 91.695312 111.21875 C 91.917969 110.644531 92.164062 110.085938 92.441406 109.539062 C 92.714844 108.988281 93.015625 108.457031 93.335938 107.941406 C 93.660156 107.421875 94.007812 106.925781 94.378906 106.445312 C 94.746094 105.960938 95.140625 105.5 95.550781 105.0625 C 95.964844 104.621094 96.394531 104.203125 96.847656 103.804688 C 97.296875 103.410156 97.765625 103.039062 98.25 102.691406 C 98.738281 102.34375 99.238281 102.019531 99.753906 101.722656 C 100.269531 101.429688 100.796875 101.160156 101.335938 100.917969 C 101.875 100.675781 102.425781 100.464844 102.984375 100.277344 C 103.546875 100.09375 104.113281 99.9375 104.6875 99.8125 C 105.261719 99.6875 105.839844 99.589844 106.421875 99.523438 C 107.003906 99.457031 107.589844 99.421875 108.175781 99.414062 C 108.761719 99.410156 109.347656 99.433594 109.933594 99.488281 C 110.515625 99.542969 111.097656 99.625 111.671875 99.742188 C 112.25 99.855469 112.820312 100 113.382812 100.171875 C 113.945312 100.34375 114.5 100.546875 115.042969 100.777344 C 115.589844 101.007812 116.121094 101.265625 116.640625 101.550781 C 117.164062 101.835938 117.667969 102.148438 118.160156 102.484375 C 118.652344 102.824219 119.128906 103.183594 119.585938 103.570312 L 245.117188 211.367188 C 273.191406 235.476562 313.550781 234.976562 341.089844 210.164062 L 465.859375 97.730469 C 466.308594 97.324219 466.773438 96.945312 467.257812 96.585938 C 467.742188 96.230469 468.242188 95.898438 468.757812 95.59375 C 469.269531 95.285156 469.796875 95.007812 470.339844 94.757812 C 470.878906 94.507812 471.429688 94.285156 471.992188 94.09375 C 472.554688 93.898438 473.125 93.738281 473.699219 93.601562 C 474.277344 93.46875 474.859375 93.363281 475.445312 93.292969 C 476.03125 93.21875 476.617188 93.175781 477.207031 93.160156 C 477.800781 93.148438 478.386719 93.167969 478.976562 93.214844 C 479.566406 93.265625 480.152344 93.34375 480.730469 93.453125 C 481.3125 93.5625 481.886719 93.703125 482.457031 93.875 C 483.023438 94.042969 483.582031 94.242188 484.132812 94.46875 C 484.683594 94.695312 485.21875 94.953125 485.746094 95.234375 C 486.273438 95.519531 486.785156 95.828125 487.28125 96.164062 C 487.777344 96.503906 488.257812 96.863281 488.722656 97.25 C 489.183594 97.636719 489.628906 98.046875 490.054688 98.480469 C 490.480469 98.914062 490.882812 99.367188 491.265625 99.839844 C 491.648438 100.316406 492.011719 100.808594 492.347656 101.320312 C 492.683594 101.832031 492.996094 102.363281 493.285156 102.90625 C 493.574219 103.453125 493.835938 104.011719 494.070312 104.582031 C 494.308594 105.152344 494.515625 105.738281 494.699219 106.332031 C 494.878906 106.925781 495.03125 107.527344 495.160156 108.136719 C 495.285156 108.746094 495.382812 109.359375 495.449219 109.980469 C 495.519531 110.601562 495.558594 111.222656 495.570312 111.84375 C 495.578125 112.46875 495.558594 113.09375 495.511719 113.714844 C 495.464844 114.335938 495.390625 114.953125 495.285156 115.570312 C 495.179688 116.183594 495.046875 116.789062 494.886719 117.390625 C 494.722656 117.988281 494.535156 118.582031 494.320312 119.160156 C 494.101562 119.742188 493.859375 120.308594 493.589844 120.863281 C 493.320312 121.421875 493.027344 121.960938 492.707031 122.484375 C 492.386719 123.007812 492.042969 123.515625 491.679688 124.003906 C 491.3125 124.496094 490.921875 124.964844 490.511719 125.410156 C 490.101562 125.859375 489.671875 126.285156 489.222656 126.691406 L 364.453125 239.125 C 359.46875 243.621094 354.152344 247.617188 348.5 251.117188 C 342.847656 254.613281 336.949219 257.558594 330.804688 259.953125 C 324.65625 262.347656 318.359375 264.148438 311.910156 265.363281 C 305.460938 266.574219 298.960938 267.179688 292.414062 267.175781 Z M 292.414062 267.175781 " fill-opacity="1" fill-rule="nonzero"/><path fill="#666cff" d="M 456.441406 386.847656 C 454.039062 386.851562 451.730469 386.363281 449.515625 385.390625 C 447.300781 384.414062 445.347656 383.023438 443.660156 381.222656 L 360.027344 292.140625 C 359.613281 291.699219 359.21875 291.238281 358.84375 290.753906 C 358.472656 290.269531 358.121094 289.769531 357.796875 289.25 C 357.46875 288.730469 357.167969 288.195312 356.890625 287.644531 C 356.613281 287.09375 356.363281 286.527344 356.140625 285.953125 C 355.914062 285.375 355.71875 284.789062 355.550781 284.191406 C 355.378906 283.59375 355.238281 282.988281 355.125 282.375 C 355.011719 281.761719 354.925781 281.148438 354.871094 280.527344 C 354.816406 279.90625 354.789062 279.28125 354.789062 278.660156 C 354.792969 278.035156 354.824219 277.414062 354.882812 276.792969 C 354.941406 276.171875 355.03125 275.554688 355.148438 274.945312 C 355.265625 274.332031 355.410156 273.730469 355.582031 273.132812 C 355.757812 272.539062 355.957031 271.953125 356.183594 271.375 C 356.414062 270.800781 356.667969 270.238281 356.945312 269.691406 C 357.226562 269.140625 357.53125 268.609375 357.863281 268.089844 C 358.191406 267.574219 358.542969 267.074219 358.921875 266.59375 C 359.296875 266.113281 359.695312 265.652344 360.113281 265.214844 C 360.53125 264.773438 360.96875 264.359375 361.425781 263.964844 C 361.886719 263.570312 362.359375 263.199219 362.851562 262.855469 C 363.34375 262.511719 363.851562 262.195312 364.371094 261.902344 C 364.894531 261.609375 365.429688 261.347656 365.972656 261.109375 C 366.519531 260.875 367.078125 260.667969 367.640625 260.488281 C 368.207031 260.308594 368.78125 260.160156 369.359375 260.042969 C 369.9375 259.921875 370.523438 259.835938 371.109375 259.777344 C 371.695312 259.71875 372.285156 259.691406 372.875 259.691406 C 373.464844 259.695312 374.054688 259.730469 374.640625 259.792969 C 375.230469 259.855469 375.8125 259.949219 376.390625 260.074219 C 376.96875 260.199219 377.539062 260.355469 378.101562 260.539062 C 378.667969 260.722656 379.21875 260.933594 379.765625 261.175781 C 380.308594 261.417969 380.839844 261.6875 381.359375 261.984375 C 381.878906 262.28125 382.382812 262.601562 382.871094 262.953125 C 383.359375 263.300781 383.832031 263.675781 384.285156 264.074219 C 384.742188 264.472656 385.175781 264.890625 385.589844 265.335938 L 469.21875 354.414062 C 469.84375 355.078125 470.417969 355.785156 470.941406 356.539062 C 471.464844 357.292969 471.933594 358.078125 472.347656 358.90625 C 472.761719 359.730469 473.117188 360.582031 473.410156 361.464844 C 473.707031 362.34375 473.9375 363.242188 474.109375 364.160156 C 474.277344 365.078125 474.382812 366.003906 474.425781 366.9375 C 474.464844 367.867188 474.441406 368.800781 474.355469 369.730469 C 474.265625 370.660156 474.113281 371.578125 473.894531 372.484375 C 473.679688 373.386719 473.402344 374.273438 473.0625 375.136719 C 472.722656 375.996094 472.324219 376.828125 471.867188 377.628906 C 471.410156 378.429688 470.902344 379.191406 470.339844 379.914062 C 469.78125 380.632812 469.171875 381.308594 468.515625 381.933594 C 467.859375 382.5625 467.164062 383.132812 466.429688 383.652344 C 465.691406 384.167969 464.925781 384.628906 464.125 385.027344 C 463.328125 385.425781 462.503906 385.761719 461.65625 386.03125 C 460.8125 386.300781 459.953125 386.503906 459.078125 386.640625 C 458.203125 386.777344 457.324219 386.847656 456.441406 386.847656 Z M 456.441406 386.847656 " fill-opacity="1" fill-rule="nonzero"/><path fill="#666cff" d="M 129.332031 384.46875 C 128.441406 384.46875 127.558594 384.398438 126.679688 384.261719 C 125.800781 384.125 124.9375 383.917969 124.085938 383.644531 C 123.238281 383.371094 122.410156 383.035156 121.609375 382.632812 C 120.808594 382.230469 120.035156 381.765625 119.300781 381.242188 C 118.5625 380.71875 117.863281 380.144531 117.207031 379.511719 C 116.550781 378.878906 115.941406 378.199219 115.378906 377.472656 C 114.816406 376.746094 114.308594 375.976562 113.855469 375.171875 C 113.402344 374.363281 113.007812 373.527344 112.667969 372.65625 C 112.332031 371.789062 112.058594 370.898438 111.84375 369.988281 C 111.632812 369.074219 111.484375 368.152344 111.402344 367.21875 C 111.320312 366.28125 111.300781 365.347656 111.351562 364.410156 C 111.398438 363.472656 111.511719 362.542969 111.691406 361.621094 C 111.867188 360.703125 112.109375 359.800781 112.414062 358.921875 C 112.71875 358.039062 113.082031 357.183594 113.507812 356.359375 C 113.929688 355.535156 114.410156 354.746094 114.945312 353.996094 C 115.480469 353.246094 116.0625 352.542969 116.695312 351.882812 L 202.257812 262.804688 C 202.675781 262.359375 203.117188 261.941406 203.574219 261.542969 C 204.03125 261.144531 204.507812 260.773438 205 260.425781 C 205.492188 260.078125 206 259.753906 206.523438 259.460938 C 207.046875 259.164062 207.582031 258.898438 208.132812 258.660156 C 208.679688 258.417969 209.238281 258.210938 209.804688 258.027344 C 210.371094 257.847656 210.945312 257.699219 211.527344 257.578125 C 212.109375 257.457031 212.695312 257.367188 213.285156 257.304688 C 213.875 257.246094 214.46875 257.21875 215.058594 257.21875 C 215.652344 257.222656 216.246094 257.253906 216.835938 257.316406 C 217.425781 257.382812 218.007812 257.476562 218.589844 257.601562 C 219.171875 257.726562 219.746094 257.882812 220.3125 258.066406 C 220.878906 258.25 221.433594 258.464844 221.980469 258.707031 C 222.527344 258.949219 223.0625 259.222656 223.582031 259.519531 C 224.101562 259.820312 224.609375 260.144531 225.101562 260.496094 C 225.589844 260.847656 226.0625 261.222656 226.519531 261.625 C 226.976562 262.023438 227.410156 262.449219 227.828125 262.894531 C 228.242188 263.339844 228.636719 263.808594 229.007812 264.296875 C 229.382812 264.78125 229.730469 265.289062 230.054688 265.8125 C 230.382812 266.335938 230.679688 266.875 230.957031 267.429688 C 231.230469 267.988281 231.476562 268.554688 231.699219 269.136719 C 231.921875 269.714844 232.117188 270.308594 232.28125 270.910156 C 232.449219 271.511719 232.585938 272.121094 232.695312 272.734375 C 232.804688 273.351562 232.886719 273.972656 232.9375 274.59375 C 232.988281 275.21875 233.011719 275.84375 233.003906 276.472656 C 232.996094 277.097656 232.960938 277.722656 232.894531 278.34375 C 232.828125 278.96875 232.734375 279.585938 232.613281 280.199219 C 232.488281 280.8125 232.339844 281.417969 232.160156 282.011719 C 231.980469 282.609375 231.773438 283.195312 231.539062 283.773438 C 231.304688 284.347656 231.042969 284.910156 230.753906 285.457031 C 230.46875 286.007812 230.15625 286.539062 229.820312 287.054688 C 229.484375 287.570312 229.125 288.066406 228.742188 288.542969 C 228.355469 289.023438 227.953125 289.480469 227.527344 289.914062 L 141.964844 378.996094 C 140.28125 380.75 138.347656 382.105469 136.160156 383.050781 C 133.972656 384 131.695312 384.472656 129.332031 384.46875 Z M 129.332031 384.46875 " fill-opacity="1" fill-rule="nonzero"/></svg>