  <svg version="1.1" id="svg2" xmlns="http://www.w3.org/2000/svg" xmlns:xlink="http://www.w3.org/1999/xlink" x="0" y="0" viewBox="0 0 106.8 77.8" style="enable-background:new 0 0 106.8 77.8" xml:space="preserve"><style>.st0{clip-path:url(#SVGID_00000062896588943378590130000000917463745368126088_)}</style><defs><path id="SVGID_1_" d="M-98.2-708.5h595.3v834.1H-98.2z"/></defs><clipPath id="SVGID_00000111180404560355822130000003878532866338977691_"><use xlink:href="#SVGID_1_" style="overflow:visible"/></clipPath><g style="clip-path:url(#SVGID_00000111180404560355822130000003878532866338977691_)"><path d="M65 33.1c-11.8 6.4-24.8 13.4-36.5 20-1.8 1-3.7 2.1-5.5 3.1 4.3-8 8.7-16.1 12.9-24.1l4.6.1c8.4.2 17 .3 25.5.4-.4.2-.7.4-1 .5m9.5-10.3c-5 0-10.1.1-15.1.2 9.1-4.8 18.8-10 27.8-14.9l10.6-5.8c-3.9.2-13.9.5-17.6.7-13.2.6-26.5 1.2-39.7 2.2 11.1 1 22.3 1.8 33.4 2.5-.3.2-.6.3-.9.4-10.6 4.7-21.7 9.7-32.3 14.6 1.4-2.6 2.7-5.3 4.1-7.9-8.4.5-17.2 1-25.5 1.7 5.7.5 11.4 1 17.1 1.4l2.8.2c-1.8 2.6-3.5 5.3-5.3 7.9-1.3 2-2.7 4.1-4 6.1-1.8 2.7-3.6 5.5-5.3 8.2C16.7 52.1 8.5 65.2 1 77.3c10-5 22.1-11 31.9-16C57 49 82 35.6 105.8 22.7c-7.6 0-23.9 0-31.3.1" style="fill:#fff"/></g></svg>